<svg width="512" height="512" viewBox="0 0 512 512" fill="none" xmlns="http://www.w3.org/2000/svg">
  <defs>
    <linearGradient id="bg" x1="64" y1="48" x2="448" y2="464" gradientUnits="userSpaceOnUse">
      <stop stop-color="#0F172A"/>
      <stop offset="1" stop-color="#111827"/>
    </linearGradient>
    <linearGradient id="accent" x1="128" y1="144" x2="384" y2="368" gradientUnits="userSpaceOnUse">
      <stop stop-color="#22D3EE"/>
      <stop offset="1" stop-color="#38BDF8"/>
    </linearGradient>
    <linearGradient id="accent2" x1="140" y1="160" x2="372" y2="352" gradientUnits="userSpaceOnUse">
      <stop stop-color="#4ADE80"/>
      <stop offset="1" stop-color="#22C55E"/>
    </linearGradient>
  </defs>

  <rect x="32" y="32" width="448" height="448" rx="112" fill="url(#bg)"/>
  <rect x="92" y="108" width="328" height="264" rx="36" fill="#020617" stroke="#334155" stroke-width="12"/>
  <rect x="92" y="108" width="328" height="56" rx="36" fill="#111827"/>
  <circle cx="132" cy="136" r="8" fill="#F87171"/>
  <circle cx="160" cy="136" r="8" fill="#FBBF24"/>
  <circle cx="188" cy="136" r="8" fill="#4ADE80"/>

  <path d="M168 222L232 256L168 290" stroke="url(#accent)" stroke-width="24" stroke-linecap="round" stroke-linejoin="round"/>
  <path d="M270 300H344" stroke="url(#accent2)" stroke-width="24" stroke-linecap="round"/>

  <path d="M328 198L340 226L368 238L340 250L328 278L316 250L288 238L316 226L328 198Z" fill="#F8FAFC"/>
  <path d="M156 394H356" stroke="#475569" stroke-width="14" stroke-linecap="round"/>
</svg>
